<?xml version="1.0" encoding="utf-8"?>
<!-- Generator: Adobe Illustrator 27.0.0, SVG Export Plug-In . SVG Version: 6.00 Build 0)  -->
<svg version="1.1" id="Layer_1" xmlns="http://www.w3.org/2000/svg" xmlns:xlink="http://www.w3.org/1999/xlink" x="0px" y="0px"
	 viewBox="0 0 1263.1 325" style="enable-background:new 0 0 1263.1 325;" xml:space="preserve">
<style type="text/css">
	.st0{fill:#193869;}
	.st1{fill:#193869;}
	.st2{fill:#193869;}
	.st3{fill:#193869;}
	.st4{fill:#193869;}
	.st5{fill:#193869;}
	.st6{fill:#d29538;}
	.st7{fill:#193869;}
	.st8{fill:#D1D3D4;}
	.st9{fill:#606063;}
	.st10{fill:#636366;}
	.st11{fill:#606163;}
	.st12{fill:#67676A;}
	.st13{fill:#626265;}
	.st14{fill:#D2D4D4;}
	.st15{fill:#616164;}
	.st16{fill:#666669;}
	.st17{fill:#656568;}
	.st18{fill:#6B6B6E;}
	.st19{fill:#D2D4D5;}
	.st20{fill:#5D5D60;}
	.st21{fill:#215380;}
	.st22{fill:#6A6B6D;}
	.st23{fill:#5F5F62;}
	.st24{fill:#D2D3D4;}
	.st25{fill:#D3D5D6;}
	.st26{fill:#D4D6D7;}
	.st27{fill:#D7D8D9;}
	.st28{fill:#D6D7D8;}
	.st29{fill:#D8DADB;}
	.st30{fill:#FEFEFE;}
</style>
<path class="st0" d="M1085,50h55v1.9l-8.1,2.5l-3.8,2.5l-2.5,3.1l-1.2,3.8l-0.6,57.5h97.5l-0.6-58.8l-1.9-3.8l-3.8-2.5l-11.9-3.8
	l-0.6-2.5l13.1,0.6h43.1v1.9l-9.4,3.1l-3.8,1.9l-1.9,3.8l-0.6,2.5V200l1.2,6.2l2.5,5l5,4.4l8.1,3.1l3.1,0.6v1.9h-57.5l0.6-2.5
	l8.1-1.9l3.8-5l1.9-5.6l0.6-3.1l0.6-72.5h-97.5l0.6,71.9l1.9,6.2l2.5,3.8l3.8,3.1l6.2,2.5l6.2,1.2v1.9l-21.2,0.6h-30.6l-6.9-0.6
	l0.6-1.9l10-3.1l3.8-3.1l1.2-3.8V62.5l-2.5-5l-6.2-3.8l-3.8-1.2l-4.4-0.6V50z"/>
<path class="st1" d="M711.9,50h55l0.6,1.9l-8.8,2.5l-4.4,3.1l-2.5,5.6l-0.6,58.1h97.5l-0.6-58.1l-2.5-5l-5-2.5l-11.2-3.8L830,50
	l13.1,0.6h42.5l0.6,1.9L875,56.2l-3.1,3.1l-1.2,3.8v138.1l1.9,6.9l3.1,5l6.2,3.8l8.8,2.5v1.9h-57.5l0.6-2.5l8.1-1.9l2.5-3.1l2.5-5.6
	l1.2-6.2l0.6-71.2h-97.5l0.6,72.5l1.9,6.2l5,5.6l6.9,3.1l6.9,1.2v1.9l-21.2,0.6h-30.6l-6.9-0.6v-1.9l9.4-2.5l4.4-3.1l1.9-5V62.5
	l-1.9-3.8l-0.6-1.9l-2.5-1.2l-5.6-2.5l-6.2-1.2L711.9,50z"/>
<path class="st2" d="M131.2,0l3.1,2.5l6.9,8.8l5.6,6.9l5.6,6.2l10,10l8.8,6.9l10,7.5l10.6,7.5l10.6,8.1l8.1,6.9l8.1,7.5l4.4,4.4
	l5.6,6.9l6.2,7.5l6.9,10l6.2,10.6l5,10.6l5.6,16.9l3.1,14.4l1.2,9.4l0.6,8.1V325h-0.6l-5.6-68.8l-5-62.5l-1.2-17.5l-2.5-15l-5-16.2
	l-7.5-15.6L230,120l-6.2-8.1l-7.5-8.8L205,91.9l-8.8-6.9l-8.1-6.2l-15.6-10.6l-8.8-6.2l-8.1-6.2l-8.8-7.5l-1.2-1.2v-15l-1.9-6.2
	l-3.1-4.4l-4.4-2.5h-8.8l-5.6,3.8l-3.1,6.2l-0.6,2.5v15.6l-7.5,6.9L100,61.9l-10.6,7.5l-11.9,8.1l-11.9,8.8l-8.8,7.5l-12.5,12.5
	l-5.6,6.9l-6.9,9.4l-5,8.1l-5,10l-4.4,11.2l-3.8,15l-1.9,15l-2.5,34.4L0.6,324.4H0V176.2l1.9-16.9L5,145l5-15l7.5-15.6l7.5-11.9
	l8.8-11.2l5.6-6.2l4.4-5l7.5-7.5l6.9-5.6l7.5-6.2l11.2-8.1L87.5,45l11.2-8.8l8.1-7.5l8.1-8.1l6.9-8.8l8.8-10.6L131.2,0z"/>
<path class="st3" d="M338.1,48.1h12.5l9.4,0.6h21.9l10.6-0.6h13.1l13.1,1.9l10,3.1l8.8,5l6.2,5.6l5,6.9l2.5,5.6l1.9,10v7.5l-1.9,10
	l-3.8,10l-5.6,10l-5.6,7.5l-7.5,8.1l-2.5,2.5l1.2,2.5l8.1,10.6l17.5,23.8l6.9,8.8l7.5,8.8l6.2,6.2l10.6,8.1l10,5l8.1,1.9h7.5
	l0.6,1.9l-6.2,3.1l-7.5,1.9l-4.4,0.6h-9.4l-10-2.5l-7.5-3.8l-6.9-5l-7.5-6.9l-5.6-6.2l-8.1-11.2l-8.8-12.5l-6.2-8.1l-6.9-8.1
	l-6.2-5.6l-6.9-3.1l-4.4-0.6l-20.6-0.6l0.6,46.2l1.2,6.9l3.1,6.2l2.5,3.1l4.4,3.1l5,1.9l4.4,1.2l-0.6,1.9l-16.9-1.2h-21.9l-13.8,1.2
	H340l0.6-1.9l6.2-3.8l5-5.6l3.1-6.2l1.2-6.9V70l-1.2-6.2l-3.1-5l-4.4-4.4l-7.5-3.8l-1.9-0.6V48.1z M391.2,55l-9.4,1.2l-3.8,1.2v79.4
	l6.9,1.2l16.2,0.6l9.4-1.2l6.9-2.5l5-3.8l3.8-5.6l3.1-7.5l1.2-5.6l0.6-6.2v-7.5l-1.9-11.9l-3.8-10l-3.8-6.2l-5.6-6.2l-5-4.4
	l-8.1-3.8L395,55H391.2z"/>
<path class="st0" d="M590.6,48.8l71.2,0.6l10.6,1.2l9.4,2.5l6.9,3.8l6.2,6.2l5,10l1.9,10v12.5L700,105l-3.8,10l-5.6,9.4l-7.5,8.1
	l-7.5,5.6l-7.5,3.8l-10,2.5h-10.6l-8.8-1.9v-1.9l13.8-0.6l7.5-1.9l7.5-3.8l6.2-5.6l3.8-5l3.8-8.1l1.9-9.4V95.6l-1.9-10l-3.8-9.4
	l-5.6-8.1l-6.2-5.6l-8.8-4.4l-5.6-1.2h-8.8L630,60l0.6,142.5l1.2,6.2l2.5,5l5.6,3.8l5,1.2l5.6,0.6v2.5l-57.5-0.6v-1.9l10-3.1
	l3.1-2.5l1.9-5v-145l-3.1-5l-5-4.4l-5-2.5l-5-1.9L590.6,48.8z"/>
<path class="st4" d="M983.8,45.6l1.9,1.9l6.2,16.9l11.2,30.6l11.9,30.6l10.6,25.6l9.4,21.2l8.1,17.5l6.9,13.8l4.4,6.2l5,4.4l7.5,3.1
	l7.5,1.2v1.9l-2.5,0.6h-13.1l-5.6-0.6h-18.8l-9.4,0.6h-8.1v-1.9l11.2-5h1.2l-6.9-18.8l-9.4-23.8l-6.2-16.2v-1.2h-49.4l-1.9,5.6
	l-8.8,24.4l-5.6,19.4L940,210l0.6,4.4l3.1,3.1l8.1,1.9v1.9h-8.8l-8.1-0.6h-13.8l-16.2,1.2h-3.8V220l10-3.1l5.6-3.1l4.4-3.8l4.4-7.5
	l10-25.6l10-27.5l11.9-33.8l11.2-31.2l12.5-33.8L983.8,45.6z M981.9,78.8l-7.5,22.5l-10,31.2l-3.8,11.9h41.9l-1.2-6.2l-15.6-50.6
	l-2.5-8.1L981.9,78.8z"/>
<path class="st5" d="M573.1,49.4l2.5,0.6v1.2l-10,3.1l-4.4,3.8l-1.2,3.1v141.2l2.5,8.1l3.1,3.8l6.2,3.1l8.1,1.9v1.9h-58.1v-1.9
	l6.2-3.1l5-4.4l3.1-6.2l1.2-5.6V63.1l-1.9-5l-3.1-2.5l-5.6-2.5l-5.6-1.2l-0.6-1.9h7.5l11.9,0.6h17.5L573.1,49.4z"/>
<path class="st6" d="M129.4,23.8h5l3.8,1.9l3.1,3.8l1.9,4.4l0.6,4.4v5.6l-1.2,8.1L138.8,65l-1.9,4.4l0.6,3.1l5,6.2l5,5l2.5-1.2
	l3.1-3.1l1.2-3.1l-0.6-3.8L150,70h-4.4l-5.6,1.2l-1.2-2.5l3.8-2.5l5-1.2l6.9,0.6l3.8,2.5l2.5,3.1l0.6,1.9v5.6l-2.5,5l-5.6,4.4
	l3.1,3.1l6.9,5.6l10,6.9l5.6,5l4.4,6.9l1.9,5.6v9.4l-2.5,6.9l-4.4,6.9l-5,4.4l-9.4,5l-10,4.4l-7.5,4.4l-7.5,6.9l-6.2,6.9l-0.6-1.2
	l3.1-8.1l4.4-7.5l4.4-5l6.9-5l8.1-3.1l11.2-3.1l6.2-3.8l3.1-5l0.6-2.5v-8.8l-2.5-5.6l-5.6-6.2l-6.9-4.4l-10-6.2l-7.5-5.6l-1.9-1.2
	l-3.1,0.6l-5.6,3.8h-1.2l9.4,9.4l5,8.1l1.9,6.9v8.8l-2.5,7.5l-4.4,5.6l-6.2,3.8l-3.8,1.2h-7.5l-7.5-3.1l-5-5l-3.1-5.6l-1.2-5.6v-6.2
	l1.9-7.5l3.8-6.9l6.9-7.5l3.1-2.5v-1.2l-7.5-4.4l-2.5,1.2l-9.4,6.9l-12.5,7.5l-6.2,5.6l-3.8,5.6l-1.2,7.5l1.2,6.2l2.5,4.4l5,3.1
	l20,6.2l5.6,3.8l5.6,5.6l4.4,7.5l3.1,8.8l-0.6,2.5l-5-6.2l-7.5-7.5l-8.8-5.6l-12.5-5.6l-6.2-3.1l-4.4-3.8l-4.4-6.9l-2.5-6.2
	l-0.6-6.2l1.2-6.2l3.8-7.5l5.6-6.2l6.2-4.4l8.8-6.2l6.2-5l0.6-1.2l-3.1-1.2l-4.4-4.4l-1.9-4.4v-4.4l2.5-5l3.1-2.5l5-1.2l6.2,0.6
	l5.6,2.5l-0.6,2.5l-2.5,0.6l-3.8-1.2l-5.6,0.6l-2.5,2.5v5l1.9,2.5v1.2l5,2.5l6.9-6.9l4.4-5.6l-0.6-3.8l-3.8-10.6L120,45v-7.5
	l1.9-7.5l4.4-5L129.4,23.8z M130.6,27.5l-3.1,1.9l-1.9,3.8l-0.6,6.2l1.2,10.6l3.1,9.4l1.9,4.4l1.9-1.9l3.8-10l1.2-6.2V33.1l-1.9-3.8
	l-3.1-1.9H130.6z M131.2,78.1l-6.2,8.1l-2.5,2.5l0.6,1.9l7.5,5l2.5-0.6l8.1-5.6l-3.8-4.4l-5-6.9H131.2z M130.6,101.2l-7.5,6.9
	l-4.4,6.2l-1.9,5.6v10.6l3.1,6.2l5,4.4l3.8,1.2h5l5-1.9l4.4-4.4l2.5-5l0.6-3.1l-0.6-8.8l-3.1-7.5l-4.4-5.6l-6.2-5H130.6z"/>
<path class="st2" d="M191.2,117.5l2.5,0.6l0.6,2.5V145l-2.5,15l-4.4,13.1l-5,10l-5.6,8.8l-5,6.2l-7.5,8.1l-6.9,5.6l-8.1,6.2l-15,8.8
	l-11.9,5.6l-10,5l-7.5,4.4l-2.5,1.2l0.6-8.8l2.5-8.1l4.4-7.5l5-6.2l6.9-7.5l5.6-6.9l5-6.9L140,180l6.9-8.8l7.5-7.5l6.2-3.8l5-1.9
	h5.6l-1.2,2.5l-5,5.6l-5.6,10.6l-3.8,13.1v3.1l2.5,0.6l6.9-5.6l5.6-5.6l6.2-8.1l4.4-7.5l3.8-9.4l2.5-10l1.2-8.8l0.6-18.8
	L191.2,117.5z"/>
<path class="st7" d="M70.6,117.5l2.5,0.6l0.6,0.6l1.2,20.6l1.9,11.2l3.1,10.6l5,10l5.6,8.1l6.9,7.5l7.5,6.9l3.1-0.6l-0.6-5.6
	l-3.1-10l-5-10l-5-6.2l-1.9-1.9v-1.2h5.6l6.2,2.5l6.9,5l6.2,6.2l7.5,10l4.4,6.9l-0.6,2.5l-4.4,5.6l-7.5,8.8l-6.2,6.9l-0.6,1.2
	l-3.1-1.2l-8.8-7.5l-5-5l-6.9-8.8l-5.6-8.8l-5-10.6l-3.1-9.4L70,150.6l-1.2-13.1v-8.8l0.6-9.4L70.6,117.5z"/>
<path class="st6" d="M336.2,318.8h925v0.6h-925V318.8z"/>
<path class="st8" d="M208.1,218.1h4.4v1.2l-6.2,3.1l-3.8,4.4l-1.2,2.5l0.6,2.5l4.4,2.5h5.6l3.1-1.9l3.1-5l1.9-6.9l1.2,0.6l0.6,5.6
	l-2.5,6.9l-3.8,5.6l-5,3.1l-5,0.6l-1.9-0.6v1.2l2.5,1.2l2.5,1.9l1.2-3.1l2.5-1.2l3.8,0.6l3.8,4.4v3.8l-1.9,1.9h-5l-3.1-1.2l-1.9,5.6
	l-3.8,3.8l-3.8,0.6l-3.8-1.9l-6.2-6.2l-8.1-11.2l-5.6-6.2l-3.1-3.1l-0.6-2.5l3.1,1.2l5,4.4l5.6,6.2l6.2,9.4l3.1,3.8l2.5,1.2l3.1-0.6
	l2.5-2.5l1.9-3.8l-0.6-1.9l-5-4.4l-5.6-6.2l-5.6-6.9l-5-5.6l-0.6-3.8l4.4,3.8l8.8,9.4l3.1,2.5l3.8,1.2L200,235l-1.9-4.4l0.6-5.6
	l3.8-4.4L208.1,218.1z M214.4,246.9l-1.9,1.9h3.1l0.6-1.9H214.4z"/>
<path class="st9" d="M534.4,250.6l2.5,1.2l5.6,5.6l4.4,5l5.6,5.6l4.4,5l8.1,8.8l1.9,1.9l-0.6-7.5l-0.6-22.5l-4.4-1.9v-0.6h12.5
	l-1.9,1.2l-1.2,0.6l-0.6,34.4l-0.6,5l-2.5-1.2l-6.2-5.6l-6.9-6.9l-4.4-5l-6.9-7.5l-4.4-5.6l-1.2-0.6l1.2,28.8l1.9,1.9l2.5,0.6v1.2
	H530v-1.2l3.1-1.9l0.6-36.2L534.4,250.6z"/>
<path class="st10" d="M736.2,250.6l2.5,1.2l7.5,7.5l4.4,5l5,5l4.4,5l7.5,8.1v1.2h1.2l-1.2-31.2l-4.4-0.6v-0.6h12.5l-1.2,1.2
	l-1.9,0.6l-0.6,35.6l-0.6,4.4l-4.4-3.8l-5-4.4l-5-5l-4.4-5l-6.9-7.5l-5.6-6.9h-0.6v10l0.6,17.5l0.6,1.9l4.4,1.9l-2.5,0.6h-10.6v-1.2
	l3.1-1.9l0.6-4.4v-30L736.2,250.6z"/>
<path class="st10" d="M933.1,250.6l2.5,1.2l7.5,7.5l4.4,5l5,5l4.4,5l7.5,8.1v1.2h1.2l-1.2-31.2l-3.8-0.6v-0.6h11.9l-1.2,1.2
	l-1.9,0.6l-0.6,35.6l-0.6,4.4l-4.4-3.8l-5-4.4l-5-5l-4.4-5l-6.9-7.5l-5.6-6.9h-0.6v10l0.6,17.5l0.6,1.9l4.4,1.9l-2.5,0.6h-10.6v-1.2
	l3.1-1.9l0.6-5V255L933.1,250.6z"/>
<path class="st11" d="M363.1,250.6l2.5,1.2l11.2,11.2l4.4,5l10,10.6l3.8,4.4v-22.5l-0.6-7.5l-3.8-1.2v-0.6h11.9l-3.1,2.5l-0.6,37.5
	l-0.6,1.2l-2.5-1.2l-5-5l-3.8-3.1l-4.4-5l-8.8-9.4l-5.6-6.9l-1.2-1.2v21.9l0.6,7.5l4.4,1.9l-2.5,0.6h-10.6l3.8-4.4L363.1,250.6z"/>
<path class="st12" d="M1081.9,250.6l19.4,0.6l5,2.5l2.5,3.8v6.9l-2.5,5l-3.1,4.4l7.5,10l3.8,4.4l4.4,2.5l3.8,0.6v1.2l-1.9,0.6h-6.2
	l-5.6-3.8l-6.2-8.1l-3.8-4.4l-1.2-0.6l-6.2-0.6l0.6,13.1l1.2,1.9l1.9,1.2l-12.5,0.6v-1.2l2.5-2.5v-35l-3.1-1.9V250.6z M1092.5,252.5
	l-1.2,0.6v19.4h7.5l3.1-1.9l1.9-3.8v-5.6l-1.9-5l-3.8-3.1L1092.5,252.5z"/>
<path class="st9" d="M481.9,250.6l20,0.6l5,3.1l1.9,2.5l0.6,5.6l-1.9,5l-2.5,3.8l-1.9,2.5l6.2,8.1l4.4,5l3.8,3.1l5,1.2v1.2l-1.9,0.6
	H515l-3.8-1.9l-3.1-3.1l-5-6.2l-4.4-5l-0.6-0.6l-6.9-0.6l0.6,12.5l3.1,3.8l-12.5,0.6l2.5-3.1l0.6-1.9V255l-3.1-3.1L481.9,250.6z
	 M492.5,252.5l-1.2,0.6v18.8l0.6,0.6h7.5l2.5-1.2l1.9-3.8V260l-1.9-3.8l-3.1-3.1l-1.9-0.6H492.5z"/>
<path class="st8" d="M66.2,235h1.9l-1.2,3.8l-5.6,12.5l-0.6,4.4l1.9,2.5l8.1,1.2l1.9-6.9l5-11.9l2.5-2.5h1.2l-1.9,6.2l-0.6,1.9v5.6
	l2.5-6.2l3.1-2.5l4.4-1.2l5.6,1.9l3.8,3.1l1.9,4.4l-2.5-1.2l-3.8-2.5l-10-1.9v8.8l2.5,3.8l2.5,1.2h8.1l4.4-0.6l-0.6,1.9l-3.1,1.9
	l-2.5,0.6H84.4l-5-2.5l-3.8-4.4l-0.6-1.9l-1.9,5l4.4,0.6l2.5,3.1l-0.6,4.4l-2.5,3.1l-3.8,0.6l-2.5-2.5l-1.2-5h-5.6l-5-1.9l-1.9-3.1
	l0.6-6.2l7.5-16.2L66.2,235z M73.8,263.8l0.6,2.5l1.9,0.6l-0.6-2.5L73.8,263.8z"/>
<path class="st13" d="M700,250h5.6l6.2,1.9l5.6,3.8l3.8,4.4l2.5,5l1.2,5.6v5l-1.9,6.2l-4.4,5.6l-5.6,3.8l-5.6,1.9H700l-6.2-2.5
	l-5-3.8l-5-5.6l-1.9-4.4v-10l1.9-6.2l2.5-3.8l3.8-3.1l5.6-2.5L700,250z M698.8,252.5l-6.2,3.1l-3.8,5l-1.9,5.6v8.1l2.5,7.5l3.8,5
	l6.2,3.8h9.4l5-2.5l3.8-4.4l2.5-6.9v-7.5l-2.5-8.1l-4.4-5.6l-6.2-3.1H698.8z"/>
<path class="st14" d="M55.6,116.2l0.6,1.9l-4.4,7.5l-6.2,8.1l-8.1,10.6l-0.6,1.2v3.8l5.6,2.5l1.9,0.6l1.2-3.8l11.2-21.9l3.8-5.6
	l1.9-1.2l-0.6,3.1L54.4,140l-1.9,6.9l3.8-4.4l1.2-0.6h5l3.8,2.5l3.1,5l-0.6,1.9l-2.5-3.1l-3.8-2.5l-5-1.2l-1.2,1.9v6.9l3.1,3.1
	l1.2,0.6l8.1,1.2l-2.5,1.9H60l-6.9-2.5l-3.8-4.4l-1.2-3.8l-1.2,3.8L50,155l0.6,3.1l-1.9,3.1l-2.5,1.9l-3.1-0.6l-1.2-5l0.6-1.9
	l-5.6-1.2l-3.8-3.1v-4.4l3.8-5.6l7.5-9.4l6.9-10l2.5-4.4L55.6,116.2z M45,156.9l1.2,2.5h1.2l-1.2-2.5H45z"/>
<path class="st13" d="M881.2,251.2h13.1l-3.1,3.8v27.5l1.9,3.8l3.1,2.5l3.1,1.2h5.6l4.4-1.9l1.9-0.6l1.2-3.1l1.2-3.8v-16.2
	l-0.6-10.6l-3.1-2.5h11.2l-2.5,3.1l-0.6,24.4l-1.9,6.2l-3.1,4.4l-5,3.1l-2.5,0.6h-6.9l-6.2-2.5l-5-5l-1.9-3.8L885,255l-2.5-2.5
	L881.2,251.2z"/>
<path class="st8" d="M116.2,240.6l1.9,0.6l2.5,4.4l-0.6,1.9h-1.2l1.9,6.2v5.6l-1.9,3.8l-1.9,1.9h-1.2l5,5v3.8l-3.8,4.4l-4.4,2.5
	l-11.2,2.5H88.1l-5-2.5l-2.5-3.1l-1.2-3.8l0.6-3.1l1.9-4.4h0.6l1.2,6.2l2.5,3.1l4.4,1.9l3.8,0.6h7.5l10-1.9l5.6-1.2l-3.1-3.1
	l-10-6.2l1.9-3.8l0.6-0.6l8.1-0.6l2.5-0.6l-0.6-4.4l-1.9-6.2l-0.6-6.2L116.2,240.6z"/>
<path class="st10" d="M1000.6,251.2h13.8l-2.5,1.9l1.9,7.5l7.5,18.8l1.2,4.4h1.2l1.9-5.6l6.2-15l2.5-8.8l-0.6-1.9l-1.9-1.2h11.2
	l-1.9,1.2l-1.9,1.9l-7.5,16.9l-9.4,21.9l-1.9-1.9l-4.4-8.8l-8.8-23.1l-2.5-5v-1.2l-4.4-1.2V251.2z"/>
<path class="st15" d="M471.2,250.6h2.5l-0.6,5.6l-1.2,1.2l-1.9-3.1l-10-1.2l0.6,15.6h8.1l4.4-1.2l-0.6,6.9l-1.2,1.2l-0.6-3.1
	l-10.6-1.2l0.6,15.6l1.9,1.9l3.1,1.2h3.8l3.8-2.5l1.2-1.2l-0.6,5.6l-0.6,0.6h-21.9l3.1-3.1v-35.6l-3.8-1.9v-0.6L471.2,250.6z"/>
<path class="st16" d="M801.9,250.6l1.9,2.5L810,270l7.5,16.9l1.9,3.1l4.4,1.9v0.6H810l0.6-1.2l1.9-1.2l-5-13.1l-11.9-0.6l-3.8,13.8
	v1.2l2.5,1.2h-11.9l1.9-1.2l3.1-2.5l6.9-18.1l6.9-19.4L801.9,250.6z M801.2,258.8l-4.4,13.1v1.9h9.4l-1.2-6.2l-2.5-8.1L801.2,258.8z
	"/>
<path class="st11" d="M1071.2,250.6h2.5l-0.6,5.6l-1.2,1.2l-1.9-3.1l-10-1.2l0.6,15.6h8.1l4.4-1.2l-1.2,8.1l-2.5-3.1l-9.4-1.2
	l0.6,16.2l5,2.5h3.8l3.8-2.5l1.2-1.2l-0.6,5.6l-0.6,0.6h-21.9l3.1-3.1v-35.6l-3.8-1.9v-0.6L1071.2,250.6z"/>
<path class="st17" d="M600,250.6l1.2,1.2l8.1,21.2l5.6,12.5l2.5,4.4l3.8,1.9v0.6h-13.1l2.5-2.5l-5-13.1l-11.9-0.6l-3.8,12.5l0.6,2.5
	l1.9,1.2h-11.9l1.2-1.2l3.1-1.9l3.1-6.9l11.2-31.2L600,250.6z M599.4,258.8l-4.4,13.1v1.9h9.4l-1.2-5.6l-2.5-8.8L599.4,258.8z"/>
<path class="st15" d="M1219.4,251.2h11.2l-0.6,2.5l5,9.4l4.4,6.9v1.2h1.2l1.2-3.8l6.9-11.2l0.6-3.8l-0.6-1.2h10l-3.1,3.1l-5,5.6
	l-6.2,9.4l-1.9,4.4v15l1.9,1.9l2.5,1.2l-1.9,0.6h-11.9l3.1-3.8V275l-3.8-7.5l-6.2-8.8l-5.6-6.2L1219.4,251.2z"/>
<path class="st18" d="M622.5,250.6H655l0.6,0.6v5l-1.2,1.9l-1.2-2.5l-3.1-1.2l-8.8-0.6l0.6,35l2.5,2.5l1.9,1.2h-13.8l0.6-1.2
	l1.9-0.6l0.6-2.5v-33.8h-10l-3.1,2.5l-1.2,1.2l0.6-6.2L622.5,250.6z"/>
<path class="st10" d="M410.6,250.6h33.1v6.2l-1.2,1.2l-1.2-2.5l-3.1-1.2l-8.8-0.6l0.6,35l0.6,1.9l3.8,1.2v0.6h-13.8l3.1-3.1
	l0.6-35.6l-10.6,0.6l-3.1,2.5l-1.2,1.2l0.6-5.6L410.6,250.6z"/>
<path class="st10" d="M1180,250.6h32.5v7.5l-3.1-3.1l-1.9-0.6h-8.8v33.1l1.9,3.1l2.5,1.9h-13.8l3.1-2.5l0.6-36.2l-10,0.6l-2.5,1.2
	l-1.2,1.9h-1.2l1.2-6.2L1180,250.6z"/>
<path class="st13" d="M1141.2,250h6.2l1.9,0.6v6.2l-1.2,1.9l-2.5-5l-3.1-1.2l-4.4,0.6l-2.5,2.5l-0.6,3.8l2.5,5l7.5,6.9l3.1,3.1
	l2.5,3.8v6.2l-2.5,3.8l-3.8,3.1l-5,1.9h-6.2l-3.1-1.9l-0.6-1.2v-4.4l1.2-2.5l2.5,5.6l2.5,1.2h5l3.8-1.9l1.9-3.1l-0.6-3.8l-2.5-3.8
	l-10-10l-2.5-3.8l-0.6-1.9v-5l3.8-4.4l4.4-1.9L1141.2,250z"/>
<path class="st8" d="M40,205.6l1.2,0.6l-4.4,6.2l-1.2,2.5v4.4l3.8,4.4l5,2.5l7.5,1.9h15.6l12.5-1.2l3.1,1.2l0.6,3.1l-3.8,4.4
	l-8.1,5.6l-2.5,1.9l1.2-2.5l6.2-5.6l3.1-2.5H70l-5.6,0.6H50l-8.8-1.9l-5-3.1l-3.1-3.8l-0.6-1.9v-4.4l2.5-5.6l3.8-5L40,205.6z"/>
<path class="st8" d="M200.6,200l2.5,0.6l-0.6,1.2h8.1l3.8,1.9l3.1,3.1v2.5l4.4-3.1l4.4,0.6l3.1,5l0.6,2.5v6.9l-1.9,10.6l-2.5,5.6
	l-2.5,3.1l-2.5,1.2l-2.5-0.6l1.2-3.1l4.4-8.8l1.9-7.5l0.6-11.9l-6.9,5l-2.5,2.5l-2.5-1.2l-2.5-0.6l1.2-5.6v-4.4l-11.2-0.6l-3.8-1.2
	l-1.9-2.5L200.6,200z"/>
<path class="st8" d="M201.9,128.8h6.9L220,130l-0.6,1.2h-8.1L205,130l1.9,3.1l7.5,6.2l6.2,5l5,5l5.6,8.1l1.2,3.8v6.2l-2.5,3.8
	l-3.1,2.5l-5,1.9l-3.1,0.6h-4.4V175l7.5-1.2l4.4-1.9l0.6-1.2v-8.8l-3.8-7.5l-5.6-6.2l-5-5l-10.6-8.1l-1.9-2.5l0.6-3.1L201.9,128.8z"
	/>
<path class="st19" d="M123.1,251.2l2.5,1.2l5,4.4l-1.9,0.6l-1.2-0.6l4.4,5l8.8,8.1l0.6,3.1l-1.9,6.2l-3.1,3.1l-13.1,5L115,290h-5.6
	l-2.5-1.9l-0.6-3.1l3.8-1.2l1.2,0.6h5l13.1-3.8l8.8-3.8l-0.6-2.5l-3.1-3.1l-6.9-6.2l-3.8-6.2l-0.6-2.5V251.2z"/>
<path class="st20" d="M830.6,251.2h13.1l-3.1,2.5v32.5l3.1,3.1l4.4,0.6l4.4-1.9l3.8-3.1l-0.6,6.2l-0.6,1.2h-23.8l2.5-3.1l0.6-1.9
	V255l-0.6-1.9l-3.1-1.2V251.2z"/>
<path class="st21" d="M152.5,219.4l2.5,1.2l3.8,7.5l1.9,6.9l0.6,8.1l-2.5-1.2l-13.1-7.5l-9.4-4.4l3.1-2.5l8.8-5L152.5,219.4z"/>
<path class="st8" d="M177.5,241.9l2.5,1.2l0.6,2.5l-6.2,5l-7.5,6.2l-9.4,5.6l-6.2,2.5l-6.2,0.6l-5.6-1.9l-3.8-4.4l-1.2-4.4v-8.8
	l0.6-2.5h1.2v10.6l1.2,3.1l5,1.9h6.2l9.4-3.1l8.8-5.6l6.2-5L177.5,241.9z"/>
<path class="st18" d="M979.4,251.2h12.5l-3.1,3.1v32.5l1.2,3.8l3.1,1.2v0.6h-13.8l3.1-3.8v-35.6l-3.1-1.2V251.2z"/>
<path class="st22" d="M662.5,251.2H675l-3.1,3.1v33.1l1.2,3.1l3.1,1.2v0.6h-13.8l3.1-3.8v-35.6l-3.1-1.2V251.2z"/>
<path class="st23" d="M1158.1,251.2h12.5l-1.9,1.2h-1.2v36.2l2.5,2.5l1.9,1.2h-13.8l2.5-3.1l0.6-1.2v-34.4L1158.1,251.2z"/>
<path class="st9" d="M338.1,251.2h12.5l-3.1,2.5v34.4l1.2,2.5l3.1,1.2v0.6h-13.8l3.1-3.8v-35L338.1,251.2z"/>
<path class="st24" d="M187.5,257.5l3.8,1.2l1.9,2.5v4.4l-2.5-1.2l-3.8-0.6l-3.8,1.9l-3.1,2.5l-5.6,8.8l-3.8,6.9l-4.4,5l-4.4,0.6
	l-3.1-1.9l-1.9-1.9l-1.2-5V275l1.2-6.9h0.6v13.1l1.9,3.1l2.5,0.6l3.1-1.9l4.4-6.2l6.9-11.2l6.2-6.2L187.5,257.5z"/>
<path class="st8" d="M219.4,179.4l5.6,1.2l3.1,2.5l4.4,10.6l2.5,8.1v5l-2.5,2.5h-1.9l-0.6-3.8V200l-3.8-11.9l-2.5-6.2l-3.1,1.2
	l-7.5,8.1l-5,3.1l-1.9,1.2l-5-0.6l2.5-3.8l3.1-2.5l0.6,1.9l5.6-5.6l3.8-4.4L219.4,179.4z"/>
<path class="st19" d="M55,161.2l3.1,0.6v5.6l-1.9,3.1l-1.9,1.9l2.5,1.2l1.2,3.1l-3.1,3.8l-6.2,2.5l-4.4,0.6H35l-4.4-1.9l-2.5-3.1
	l-0.6-1.2v-5l2.5-5.6l3.1-3.8v1.9l-2.5,4.4v5.6l1.2,2.5l3.8,1.9l3.1,0.6h8.1l5.6-1.2H55l-3.1-3.1l-5.6-4.4l1.2-3.1l8.1-0.6L55,161.2
	z"/>
<path class="st19" d="M52.5,184.4l1.9,0.6l3.8,5.6l-0.6,5.6l-3.1,3.8l-8.8,1.9l-4.4,0.6H30l-3.1-2.5l0.6-5.6l3.1-3.1l-0.6,5v1.2
	l3.1,0.6h9.4l13.1-1.2l-1.9-4.4l-3.8-5.6V185L52.5,184.4z"/>
<path class="st19" d="M55.6,206.2h8.8l5,2.5L70,210v3.8l-3.1,3.1h-0.6l-1.2-4.4l-1.9-1.2l-3.1-0.6l-8.1,0.6l-10.6,3.1l-2.5-0.6
	l2.5-3.8L55.6,206.2z"/>
<path class="st19" d="M151.9,273.1h1.2v5l-5.6,6.2l-5.6,7.5l-3.8,2.5L135,295l-3.1-1.9l-1.9-1.9l-0.6-3.1h1.9l1.9,1.9l3.8-0.6l5-4.4
	l6.9-8.1L151.9,273.1z"/>
<path class="st8" d="M211.2,153.8l1.9,1.2l-1.9,4.4l1.9,4.4l3.1,3.8l4.4,3.1v1.2l-4.4,0.6l-5-3.8l-5-5.6l-0.6-1.9v-4.4l2.5-2.5
	L211.2,153.8z"/>
<path class="st19" d="M219.4,179.4l4.4,0.6v1.2l-3.8,2.5l-6.9,7.5l-5,3.1l-1.9,1.2l-5-0.6l2.5-3.8l3.1-2.5l0.6,1.9l5.6-5.6l3.8-4.4
	L219.4,179.4z"/>
<path class="st8" d="M46.2,215l0.6,1.2l-0.6,1.2v3.8l0.6,0.6h5.6l11.2-4.4l1.2,1.2l2.5,1.2l-9.4,3.8l-3.8,1.9H50l-5.6-1.9l-0.6-3.8
	L46.2,215z"/>
<path class="st8" d="M228.1,175.6l2.5,0.6l5,3.8l1.2,2.5l-0.6,4.4l-2.5,2.5l-1.2-2.5l-0.6-3.1l-2.5-3.1l-4.4-2.5l1.9-1.9
	L228.1,175.6z"/>
<path class="st8" d="M71.9,215h4.4l3.8,1.9l1.2,1.9l-0.6,3.1l-1.2,1.9h-1.2l-1.2-3.1l-1.2-0.6l-6.9-0.6L71.9,215z"/>
<path class="st19" d="M161.2,267.5h4.4l2.5,1.9l0.6,3.8l-1.9,2.5l-0.6-1.9l-6.2-0.6l0.6-5L161.2,267.5z"/>
<path class="st19" d="M220.6,133.1l4.4,0.6l3.1,3.8l-0.6,3.8l-2.5,2.5l-1.9-0.6l1.2-1.2v-3.1l-5-3.1l-1.9-1.9L220.6,133.1z"/>
<path class="st19" d="M202.5,116.9h1.2v5.6l1.9,3.1l-5,0.6l-2.5-4.4l1.2-3.8L202.5,116.9z"/>
<path class="st19" d="M201.9,168.1h3.8l1.2,0.6l-1.2,5.6l-4.4-0.6l-0.6-1.2L201.9,168.1z"/>
<path class="st8" d="M38.8,163.8l3.1,1.2l1.2,2.5l-3.1,3.1l-3.1-1.2l-1.2-1.9L38.8,163.8z"/>
<path class="st25" d="M230.6,143.8l3.8,1.2v2.5l-1.9,3.1l-3.1-1.2l-1.2-0.6l1.2-3.1L230.6,143.8z"/>
<path class="st8" d="M167.5,259.4l5,1.9l-0.6,4.4l-5.6-1.2l0.6-4.4L167.5,259.4z"/>
<path class="st8" d="M61.9,196.2l3.8,1.9l-0.6,2.5l-1.9,2.5l-3.1-1.2l-1.2-0.6l1.2-2.5L61.9,196.2z"/>
<path class="st8" d="M106.9,248.1l3.1,1.2l1.2,1.2l-0.6,3.1l-2.5,1.2l-3.1-2.5l0.6-2.5L106.9,248.1z"/>
<path class="st8" d="M200,209.4l3.1,1.2l1.2,1.9l-3.1,3.8l-4.4-2.5l2.5-3.8L200,209.4z"/>
<path class="st8" d="M144.4,268.1l3.8,0.6l1.2,1.2l-0.6,3.1l-0.6,1.2l-2.5-0.6l-1.9-1.2L144.4,268.1z"/>
<path class="st8" d="M48.8,235.6h5l-0.6,5h-4.4l-0.6-2.5L48.8,235.6z"/>
<path class="st19" d="M30.6,205.6h1.2l1.2,5.6l-1.9,1.9l-1.2-1.2v-5L30.6,205.6z"/>
<path class="st26" d="M76.9,235l1.2,0.6v1.2l-6.9,5l-1.9,1.2l1.2-2.5L76.9,235z"/>
<path class="st8" d="M183.1,248.1l1.2,0.6l-1.2,5.6l-1.2,2.5h-0.6l0.6-5.6L183.1,248.1z"/>
<path class="st27" d="M71.2,221.9h2.5l-0.6,3.1l-2.5,0.6l-0.6-1.2L71.2,221.9z"/>
<path class="st25" d="M218.1,189.4l6.2,0.6v1.2l-5.6-0.6L218.1,189.4z"/>
<path class="st8" d="M46.2,175l3.1,1.2l-0.6,1.2h-2.5l-0.6-1.9L46.2,175z"/>
<path class="st8" d="M76.9,209.4l0.6,2.5l-3.1,0.6L76.9,209.4z"/>
<path class="st28" d="M89.4,252.5l1.2,0.6l-3.1,2.5l1.2-2.5L89.4,252.5z"/>
<path class="st8" d="M132.5,273.1l0.6,1.2l-1.2,2.5l-0.6-1.2L132.5,273.1z"/>
<path class="st29" d="M31.9,188.8v1.9l-1.2,0.6L31.9,188.8z"/>
<path class="st8" d="M85,224.4v1.9V224.4z"/>
<path class="st8" d="M1095,291.9"/>
<path class="st8" d="M495,291.9"/>
<path class="st8" d="M1074.4,285.6"/>
<path class="st8" d="M474.4,285.6"/>
<path class="st8" d="M110.6,273.1"/>
<path class="st30" d="M153.1,272.5"/>
<path class="st8" d="M32.5,188.1"/>
<path class="st8" d="M33.1,187.5"/>
<path class="st8" d="M33.8,186.9"/>
<path class="st8" d="M34.4,186.2"/>
<path class="st8" d="M33.8,162.5"/>
<path class="st8" d="M34.4,161.9"/>
<path class="st8" d="M35,161.2"/>
<path class="st8" d="M35.6,160.6"/>
</svg>
